<?xml version="1.0" encoding="UTF-8"?>
<!DOCTYPE svg PUBLIC "-//W3C//DTD SVG 1.1//EN" "http://www.w3.org/Graphics/SVG/1.1/DTD/svg11.dtd">
<svg xmlns="http://www.w3.org/2000/svg" version="1.1" width="169px" height="44px" style="shape-rendering:geometricPrecision; text-rendering:geometricPrecision; image-rendering:optimizeQuality; fill-rule:evenodd; clip-rule:evenodd" xmlns:xlink="http://www.w3.org/1999/xlink">
<g><path style="opacity:0.833" fill="#e1d702" d="M 15.5,0.5 C 28.2138,-1.06639 37.0472,3.93361 42,15.5C 44.6726,28.9953 39.5059,37.8286 26.5,42C 7.47639,43.3095 -1.02361,34.4762 1,15.5C 3.35087,7.98409 8.18421,2.98409 15.5,0.5 Z M 19.5,6.5 C 20.9217,6.70858 22.255,7.20858 23.5,8C 19.5,10.3333 15.5,12.6667 11.5,15C 9.5,19.3333 10.8333,21 15.5,20C 16.1466,18.3905 16.98,16.8905 18,15.5C 18.8295,20.8643 18.6628,26.1977 17.5,31.5C 16.6858,29.2338 16.1858,26.9005 16,24.5C 14.3333,23.1667 12.6667,23.1667 11,24.5C 10.6667,26.5 10.3333,28.5 10,30.5C 8.38628,25.0096 8.05295,19.3429 9,13.5C 12.6515,11.2673 16.1515,8.934 19.5,6.5 Z M 26.5,10.5 C 29.3404,11.4234 31.6737,13.0901 33.5,15.5C 33.1667,15.8333 32.8333,16.1667 32.5,16.5C 27.4287,11.7866 25.2621,12.7866 26,19.5C 28.3806,20.435 30.8806,20.7683 33.5,20.5C 33.6646,23.5184 33.498,26.5184 33,29.5C 29.5838,31.792 26.0838,33.9586 22.5,36C 21.365,36.7494 20.365,36.5827 19.5,35.5C 22.6628,33.0843 25.9961,30.9177 29.5,29C 32.372,26.4679 32.0387,24.6345 28.5,23.5C 26.3717,24.0541 24.8717,25.3874 24,27.5C 22.7431,21.3191 23.5765,15.6525 26.5,10.5 Z"/></g>
<g><path style="opacity:0.823" fill="#fefffe" d="M 50.5,11.5 C 51.5,11.5 52.5,11.5 53.5,11.5C 53.3354,14.5184 53.502,17.5184 54,20.5C 55.613,17.3563 58.113,16.1896 61.5,17C 59.981,18.3513 58.6477,19.8513 57.5,21.5C 58.982,23.4829 60.6487,25.3163 62.5,27C 58.7399,28.1762 55.9066,27.0096 54,23.5C 53.51,24.7932 53.3433,26.1266 53.5,27.5C 52.5,27.5 51.5,27.5 50.5,27.5C 50.5,22.1667 50.5,16.8333 50.5,11.5 Z"/></g>
<g><path style="opacity:0.674" fill="#fefffe" d="M 94.5,11.5 C 95.8333,11.5 97.1667,11.5 98.5,11.5C 98.5,12.5 98.5,13.5 98.5,14.5C 97.1667,14.5 95.8333,14.5 94.5,14.5C 94.5,13.5 94.5,12.5 94.5,11.5 Z"/></g>
<g><path style="opacity:0.674" fill="#fefffe" d="M 114.5,11.5 C 115.833,11.5 117.167,11.5 118.5,11.5C 118.5,12.5 118.5,13.5 118.5,14.5C 117.167,14.5 115.833,14.5 114.5,14.5C 114.5,13.5 114.5,12.5 114.5,11.5 Z"/></g>
<g><path style="opacity:0.704" fill="#fefffe" d="M 149.5,11.5 C 150.5,11.5 151.5,11.5 152.5,11.5C 152.5,12.5 152.5,13.5 152.5,14.5C 151.5,14.5 150.5,14.5 149.5,14.5C 149.5,13.5 149.5,12.5 149.5,11.5 Z"/></g>
<g><path style="opacity:0.787" fill="#fefffe" d="M 138.5,12.5 C 140.467,12.2606 142.301,12.5939 144,13.5C 146.007,18.0199 147.507,22.6866 148.5,27.5C 145.493,27.6349 142.993,26.6349 141,24.5C 139.007,26.6349 136.507,27.6349 133.5,27.5C 134.883,22.4018 136.55,17.4018 138.5,12.5 Z M 140.5,16.5 C 141.339,17.6412 142.006,18.9745 142.5,20.5C 141.5,21.8333 140.5,21.8333 139.5,20.5C 140.246,19.2638 140.579,17.9305 140.5,16.5 Z"/></g>
<g><path style="opacity:0.735" fill="#fefffe" d="M 64.5,16.5 C 73.4867,15.665 75.8201,19.165 71.5,27C 62.4297,28.1356 60.0963,24.6356 64.5,16.5 Z M 67.5,19.5 C 71.0952,20.9051 71.2619,22.5717 68,24.5C 67.1667,23.6667 66.3333,22.8333 65.5,22C 66.3805,21.2917 67.0472,20.4584 67.5,19.5 Z"/></g>
<g><path style="opacity:0.892" fill="#fefffe" d="M 75.5,16.5 C 80.7609,16.7068 86.0942,16.8735 91.5,17C 92.4558,20.3936 92.7892,23.8936 92.5,27.5C 91.5,27.5 90.5,27.5 89.5,27.5C 89.6633,25.1432 89.4966,22.8098 89,20.5C 88.586,20.0426 88.086,19.7093 87.5,19.5C 85.7711,21.8511 85.1044,24.5178 85.5,27.5C 84.5,27.5 83.5,27.5 82.5,27.5C 82.6633,25.1432 82.4966,22.8098 82,20.5C 81.586,20.0426 81.086,19.7093 80.5,19.5C 78.7711,21.8511 78.1044,24.5178 78.5,27.5C 77.5,27.5 76.5,27.5 75.5,27.5C 75.5,23.8333 75.5,20.1667 75.5,16.5 Z"/></g>
<g><path style="opacity:0.912" fill="#fefffe" d="M 94.5,16.5 C 95.5,16.5 96.5,16.5 97.5,16.5C 97.3367,18.8568 97.5034,21.1902 98,23.5C 99.7058,24.3079 100.539,25.6412 100.5,27.5C 98.5328,27.7394 96.6995,27.4061 95,26.5C 94.5017,23.1832 94.335,19.8499 94.5,16.5 Z"/></g>
<g><path style="opacity:0.846" fill="#fefffe" d="M 103.5,16.5 C 106.654,17.0946 109.654,17.0946 112.5,16.5C 112.5,21.8333 112.5,27.1667 112.5,32.5C 111.5,32.5 110.5,32.5 109.5,32.5C 109.662,30.4727 109.495,28.4727 109,26.5C 102.306,28.1295 99.9728,25.4628 102,18.5C 102.717,17.9558 103.217,17.2891 103.5,16.5 Z M 106.5,19.5 C 110.147,20.8725 110.314,22.5392 107,24.5C 106.167,23.6667 105.333,22.8333 104.5,22C 105.381,21.2917 106.047,20.4584 106.5,19.5 Z"/></g>
<g><path style="opacity:0.912" fill="#fefffe" d="M 114.5,16.5 C 115.5,16.5 116.5,16.5 117.5,16.5C 117.337,18.8568 117.503,21.1902 118,23.5C 119.706,24.3079 120.539,25.6412 120.5,27.5C 118.533,27.7394 116.699,27.4061 115,26.5C 114.502,23.1832 114.335,19.8499 114.5,16.5 Z"/></g>
<g><path style="opacity:0.911" fill="#fefffe" d="M 121.5,16.5 C 124.603,16.6703 127.77,17.0037 131,17.5C 131.498,20.8168 131.665,24.1501 131.5,27.5C 130.5,27.5 129.5,27.5 128.5,27.5C 128.663,25.1432 128.497,22.8098 128,20.5C 127.586,20.0426 127.086,19.7093 126.5,19.5C 124.771,21.8511 124.104,24.5178 124.5,27.5C 123.5,27.5 122.5,27.5 121.5,27.5C 121.5,23.8333 121.5,20.1667 121.5,16.5 Z"/></g>
<g><path style="opacity:0.916" fill="#fefffe" d="M 149.5,16.5 C 150.5,16.5 151.5,16.5 152.5,16.5C 152.666,21.1785 152.499,25.8452 152,30.5C 150.556,32.1554 148.722,32.822 146.5,32.5C 146.343,31.1266 146.51,29.7932 147,28.5C 147.667,29.8333 148.333,29.8333 149,28.5C 149.499,24.5138 149.666,20.5138 149.5,16.5 Z"/></g>
<g><path style="opacity:0.773" fill="#fefffe" d="M 156.5,16.5 C 159.119,16.2317 161.619,16.565 164,17.5C 164.498,20.8168 164.665,24.1501 164.5,27.5C 161.723,27.2137 158.889,26.8803 156,26.5C 155.333,24.8333 155.333,23.1667 156,21.5C 157.609,20.8534 159.109,20.02 160.5,19C 159.451,18.5078 158.451,18.6744 157.5,19.5C 156.614,18.675 156.281,17.675 156.5,16.5 Z M 159.5,22.5 C 162.001,22.5109 162.168,23.1776 160,24.5C 159.536,23.9056 159.369,23.2389 159.5,22.5 Z"/></g>
</svg>
